<?xml version="1.0" standalone="no"?>
<!DOCTYPE svg PUBLIC "-//W3C//DTD SVG 20010904//EN"
 "http://www.w3.org/TR/2001/REC-SVG-20010904/DTD/svg10.dtd">
<svg version="1.0" xmlns="http://www.w3.org/2000/svg"
 width="626.000000pt" height="417.000000pt" viewBox="0 0 626.000000 417.000000"
 preserveAspectRatio="xMidYMid meet">

<g transform="translate(0.000000,417.000000) scale(0.100000,-0.100000)"
fill="#000000" stroke="none">
<path d="M0 2771 l0 -369 27 -6 c160 -31 656 -40 923 -16 127 11 155 16 120
21 -25 3 -35 7 -22 7 12 1 22 8 22 16 0 18 -65 83 -90 91 -13 4 -20 15 -20 31
0 24 -2 24 -87 24 -88 0 -88 0 -103 31 -8 17 -28 38 -45 47 -16 9 -31 20 -33
25 -2 4 -15 7 -28 7 -15 0 -24 6 -24 15 0 8 -7 15 -15 15 -46 0 -135 78 -163
142 l-17 38 -82 0 c-69 0 -83 3 -83 16 0 17 -167 188 -212 217 -15 9 -36 17
-48 17 -20 0 -20 -5 -20 -369z"/>
<path d="M1280 2430 c0 -5 5 -10 11 -10 5 0 7 5 4 10 -3 6 -8 10 -11 10 -2 0
-4 -4 -4 -10z"/>
</g>
</svg>
